<mxfile host="Electron" modified="2024-01-05T07:23:57.758Z" agent="Mozilla/5.0 (Windows NT 10.0; Win64; x64) AppleWebKit/537.36 (KHTML, like Gecko) draw.io/21.2.8 Chrome/112.0.5615.165 Electron/24.2.0 Safari/537.36" etag="oPnhcwEgN53T0vd5wszF" version="21.2.8" type="device">
  <diagram name="Page-1" id="5MRyM1B4O86g6Z81Auo5">
    <mxGraphModel dx="2600" dy="1048" grid="1" gridSize="10" guides="1" tooltips="1" connect="1" arrows="1" fold="1" page="1" pageScale="1" pageWidth="850" pageHeight="1100" math="0" shadow="0">
      <root>
        <mxCell id="0" />
        <mxCell id="1" parent="0" />
        <mxCell id="eRERa5Lsyu-r3MJ0AZSr-32" value="&lt;p style=&quot;margin:0px;margin-top:4px;text-align:center;text-decoration:underline;&quot;&gt;&lt;b&gt;Idle&lt;/b&gt;&lt;/p&gt;&lt;hr&gt;&lt;p style=&quot;margin:0px;margin-left:8px;&quot;&gt;- Current animation&lt;/p&gt;" style="verticalAlign=top;align=left;overflow=fill;fontSize=12;fontFamily=Helvetica;html=1;whiteSpace=wrap;fillColor=#dae8fc;strokeColor=#6c8ebf;rounded=1;" vertex="1" parent="1">
          <mxGeometry x="180" y="454.75" width="160" height="60" as="geometry" />
        </mxCell>
        <mxCell id="eRERa5Lsyu-r3MJ0AZSr-34" value="&lt;p style=&quot;margin:0px;margin-top:4px;text-align:center;text-decoration:underline;&quot;&gt;&lt;b&gt;Battle mode&lt;/b&gt;&lt;/p&gt;&lt;hr&gt;&lt;p style=&quot;margin:0px;margin-left:8px;&quot;&gt;- Current animation&lt;/p&gt;&lt;p style=&quot;margin:0px;margin-left:8px;&quot;&gt;- All controls&lt;/p&gt;" style="verticalAlign=top;align=left;overflow=fill;fontSize=12;fontFamily=Helvetica;html=1;whiteSpace=wrap;fillColor=#e1d5e7;strokeColor=#9673a6;rounded=1;" vertex="1" parent="1">
          <mxGeometry x="-160" y="591" width="160" height="67.5" as="geometry" />
        </mxCell>
        <mxCell id="eRERa5Lsyu-r3MJ0AZSr-35" value="&lt;p style=&quot;margin:0px;margin-top:4px;text-align:center;text-decoration:underline;&quot;&gt;&lt;b&gt;Build mode&lt;/b&gt;&lt;/p&gt;&lt;hr&gt;&lt;p style=&quot;margin:0px;margin-left:8px;&quot;&gt;- Current animation&lt;/p&gt;&lt;p style=&quot;margin:0px;margin-left:8px;&quot;&gt;- All controls&lt;/p&gt;" style="verticalAlign=top;align=left;overflow=fill;fontSize=12;fontFamily=Helvetica;html=1;whiteSpace=wrap;fillColor=#e1d5e7;strokeColor=#9673a6;rounded=1;" vertex="1" parent="1">
          <mxGeometry x="65" y="591" width="160" height="67.5" as="geometry" />
        </mxCell>
        <mxCell id="eRERa5Lsyu-r3MJ0AZSr-36" value="&lt;p style=&quot;margin:0px;margin-top:4px;text-align:center;text-decoration:underline;&quot;&gt;&lt;b&gt;Shoot&lt;/b&gt;&lt;/p&gt;&lt;hr&gt;&lt;p style=&quot;margin:0px;margin-left:8px;&quot;&gt;- Current animation&lt;/p&gt;&lt;p style=&quot;margin:0px;margin-left:8px;&quot;&gt;- Movement controls&lt;/p&gt;" style="verticalAlign=top;align=left;overflow=fill;fontSize=12;fontFamily=Helvetica;html=1;whiteSpace=wrap;fillColor=#dae8fc;strokeColor=#6c8ebf;rounded=1;" vertex="1" parent="1">
          <mxGeometry x="-160" y="701" width="160" height="67.5" as="geometry" />
        </mxCell>
        <mxCell id="eRERa5Lsyu-r3MJ0AZSr-37" value="" style="endArrow=classic;html=1;curved=1;exitX=1;exitY=0.25;exitDx=0;exitDy=0;entryX=0;entryY=0.25;entryDx=0;entryDy=0;" edge="1" parent="1" source="eRERa5Lsyu-r3MJ0AZSr-34" target="eRERa5Lsyu-r3MJ0AZSr-35">
          <mxGeometry width="50" height="50" relative="1" as="geometry">
            <mxPoint x="513" y="719" as="sourcePoint" />
            <mxPoint x="468" y="719" as="targetPoint" />
            <Array as="points" />
          </mxGeometry>
        </mxCell>
        <mxCell id="eRERa5Lsyu-r3MJ0AZSr-38" value="" style="endArrow=classic;html=1;curved=1;exitX=0;exitY=0.75;exitDx=0;exitDy=0;entryX=1;entryY=0.75;entryDx=0;entryDy=0;" edge="1" parent="1" source="eRERa5Lsyu-r3MJ0AZSr-35" target="eRERa5Lsyu-r3MJ0AZSr-34">
          <mxGeometry width="50" height="50" relative="1" as="geometry">
            <mxPoint x="10" y="618" as="sourcePoint" />
            <mxPoint x="75" y="618" as="targetPoint" />
            <Array as="points" />
          </mxGeometry>
        </mxCell>
        <mxCell id="eRERa5Lsyu-r3MJ0AZSr-39" value="&lt;p style=&quot;margin:0px;margin-top:4px;text-align:center;text-decoration:underline;&quot;&gt;&lt;b&gt;Run (left / right / forward / backward)&lt;/b&gt;&lt;/p&gt;&lt;hr&gt;&lt;p style=&quot;margin:0px;margin-left:8px;&quot;&gt;- Current animation&lt;/p&gt;&lt;p style=&quot;margin:0px;margin-left:8px;&quot;&gt;- Movement controls&lt;/p&gt;" style="verticalAlign=top;align=left;overflow=fill;fontSize=12;fontFamily=Helvetica;html=1;whiteSpace=wrap;fillColor=#dae8fc;strokeColor=#6c8ebf;rounded=1;" vertex="1" parent="1">
          <mxGeometry x="-390" y="491" width="185" height="80" as="geometry" />
        </mxCell>
        <mxCell id="eRERa5Lsyu-r3MJ0AZSr-40" value="" style="endArrow=classic;html=1;curved=1;exitX=0;exitY=0.75;exitDx=0;exitDy=0;entryX=1;entryY=0.5;entryDx=0;entryDy=0;" edge="1" parent="1" source="eRERa5Lsyu-r3MJ0AZSr-46" target="eRERa5Lsyu-r3MJ0AZSr-39">
          <mxGeometry width="50" height="50" relative="1" as="geometry">
            <mxPoint x="160" y="652" as="sourcePoint" />
            <mxPoint x="95" y="652" as="targetPoint" />
            <Array as="points" />
          </mxGeometry>
        </mxCell>
        <mxCell id="eRERa5Lsyu-r3MJ0AZSr-41" value="" style="endArrow=classic;html=1;curved=1;exitX=0.5;exitY=1;exitDx=0;exitDy=0;entryX=0.5;entryY=0;entryDx=0;entryDy=0;" edge="1" parent="1" source="eRERa5Lsyu-r3MJ0AZSr-34" target="eRERa5Lsyu-r3MJ0AZSr-36">
          <mxGeometry width="50" height="50" relative="1" as="geometry">
            <mxPoint x="240" y="669" as="sourcePoint" />
            <mxPoint x="240" y="731" as="targetPoint" />
            <Array as="points" />
          </mxGeometry>
        </mxCell>
        <mxCell id="eRERa5Lsyu-r3MJ0AZSr-42" value="" style="endArrow=classic;html=1;curved=1;exitX=1;exitY=0.5;exitDx=0;exitDy=0;entryX=0;entryY=0.5;entryDx=0;entryDy=0;" edge="1" parent="1" source="eRERa5Lsyu-r3MJ0AZSr-46" target="eRERa5Lsyu-r3MJ0AZSr-32">
          <mxGeometry width="50" height="50" relative="1" as="geometry">
            <mxPoint x="240" y="669" as="sourcePoint" />
            <mxPoint x="240" y="731" as="targetPoint" />
            <Array as="points" />
          </mxGeometry>
        </mxCell>
        <mxCell id="eRERa5Lsyu-r3MJ0AZSr-43" value="&lt;p style=&quot;margin:0px;margin-top:4px;text-align:center;text-decoration:underline;&quot;&gt;&lt;b&gt;Jump&lt;/b&gt;&lt;/p&gt;&lt;hr&gt;&lt;p style=&quot;margin:0px;margin-left:8px;&quot;&gt;- Current animation&lt;/p&gt;&lt;p style=&quot;margin:0px;margin-left:8px;&quot;&gt;- Movement controls&lt;/p&gt;&lt;p style=&quot;margin:0px;margin-left:8px;&quot;&gt;- Left mouse button&lt;/p&gt;" style="verticalAlign=top;align=left;overflow=fill;fontSize=12;fontFamily=Helvetica;html=1;whiteSpace=wrap;fillColor=#dae8fc;strokeColor=#6c8ebf;rounded=1;" vertex="1" parent="1">
          <mxGeometry x="-377.5" y="331" width="160" height="80" as="geometry" />
        </mxCell>
        <mxCell id="eRERa5Lsyu-r3MJ0AZSr-44" value="" style="endArrow=classic;html=1;curved=1;exitX=0;exitY=0.25;exitDx=0;exitDy=0;entryX=1;entryY=0.5;entryDx=0;entryDy=0;" edge="1" parent="1" source="eRERa5Lsyu-r3MJ0AZSr-46" target="eRERa5Lsyu-r3MJ0AZSr-43">
          <mxGeometry width="50" height="50" relative="1" as="geometry">
            <mxPoint x="200" y="669" as="sourcePoint" />
            <mxPoint x="99" y="741" as="targetPoint" />
            <Array as="points" />
          </mxGeometry>
        </mxCell>
        <mxCell id="eRERa5Lsyu-r3MJ0AZSr-46" value="&lt;p style=&quot;margin:0px;margin-top:4px;text-align:center;text-decoration:underline;&quot;&gt;&lt;b&gt;&amp;lt;&amp;lt;interface&amp;gt;&amp;gt;&lt;br&gt;Action mode&lt;/b&gt;&lt;/p&gt;&lt;hr&gt;&lt;p style=&quot;margin:0px;margin-left:8px;&quot;&gt;- Current animation&lt;/p&gt;&lt;p style=&quot;margin:0px;margin-left:8px;&quot;&gt;- All controls&lt;/p&gt;" style="verticalAlign=top;align=left;overflow=fill;fontSize=12;fontFamily=Helvetica;html=1;whiteSpace=wrap;fillColor=#f5f5f5;strokeColor=#666666;rounded=1;fontColor=#333333;" vertex="1" parent="1">
          <mxGeometry x="-50" y="441" width="160" height="87.5" as="geometry" />
        </mxCell>
        <mxCell id="eRERa5Lsyu-r3MJ0AZSr-49" value="" style="endArrow=block;dashed=1;endFill=0;endSize=12;html=1;rounded=0;entryX=0.25;entryY=1;entryDx=0;entryDy=0;exitX=0.5;exitY=0;exitDx=0;exitDy=0;" edge="1" parent="1" source="eRERa5Lsyu-r3MJ0AZSr-34" target="eRERa5Lsyu-r3MJ0AZSr-46">
          <mxGeometry width="160" relative="1" as="geometry">
            <mxPoint x="20" y="611" as="sourcePoint" />
            <mxPoint x="180" y="611" as="targetPoint" />
          </mxGeometry>
        </mxCell>
        <mxCell id="eRERa5Lsyu-r3MJ0AZSr-50" value="" style="endArrow=block;dashed=1;endFill=0;endSize=12;html=1;rounded=0;entryX=0.75;entryY=1;entryDx=0;entryDy=0;exitX=0.5;exitY=0;exitDx=0;exitDy=0;" edge="1" parent="1" source="eRERa5Lsyu-r3MJ0AZSr-35" target="eRERa5Lsyu-r3MJ0AZSr-46">
          <mxGeometry width="160" relative="1" as="geometry">
            <mxPoint x="-70" y="601" as="sourcePoint" />
            <mxPoint y="539" as="targetPoint" />
          </mxGeometry>
        </mxCell>
      </root>
    </mxGraphModel>
  </diagram>
</mxfile>
